<svg width="28" height="28" viewBox="0 0 28 28" fill="none" xmlns="http://www.w3.org/2000/svg">
<g clip-path="url(#clip0)">
<path d="M10.7472 20.2664C10.7431 20.2616 10.7388 20.2565 10.7341 20.2512C10.716 20.2554 10.6992 20.2593 10.6841 20.2629C10.2314 20.3688 9.66995 20.5003 9.06177 20.5003C8.28424 20.5003 7.59405 20.2847 7.01039 19.8595C6.43224 19.4384 6.08393 18.9099 5.86866 18.3727L2.72884 23.7769C2.5623 24.0635 2.58353 24.422 2.78269 24.687C2.98179 24.9519 3.32009 25.072 3.64189 24.9918L6.8421 24.1934L7.67776 27.3841C7.76246 27.7073 8.03366 27.9476 8.36476 27.9926C8.40199 27.9976 8.43917 28.0001 8.47608 28.0001C8.76708 28.0001 9.04026 27.8459 9.1892 27.5895L12.5508 21.8036C11.7219 21.4048 11.1452 20.7316 10.7472 20.2664Z" fill="#EE1111"/>
<path d="M22.1064 18.4418C21.8562 19.0271 21.4835 19.5024 20.9933 19.8596C20.4098 20.2847 19.7196 20.5003 18.9421 20.5003C18.942 20.5003 18.942 20.5003 18.9419 20.5003C18.3337 20.5003 17.7722 20.3688 17.3211 20.2632C17.3055 20.2596 17.2882 20.2555 17.2695 20.2511C17.265 20.2564 17.2607 20.2614 17.2568 20.2661C16.8493 20.7423 16.2548 21.4364 15.3945 21.8311L18.8185 27.5963C18.9685 27.8488 19.2394 28 19.5276 28C19.5658 28 19.6043 27.9974 19.6428 27.9919C19.9723 27.9456 20.2416 27.7058 20.3259 27.384L21.1616 24.1933L24.3618 24.9917C24.685 25.0724 25.0247 24.9508 25.2233 24.6837C25.4221 24.4166 25.4408 24.0562 25.2708 23.77L22.1064 18.4418Z" fill="#EE1111"/>
<path d="M13.9994 6.41125C11.8868 6.41125 10.168 8.13005 10.168 10.2427C10.168 12.3553 11.8868 14.0741 13.9994 14.0741C16.112 14.0741 17.8308 12.3553 17.8308 10.2427C17.8308 8.13005 16.112 6.41125 13.9994 6.41125Z" fill="#EE1111"/>
<path d="M22.7035 10.2427C22.7035 10.0452 22.9624 9.61772 23.1515 9.30554C23.553 8.6428 24.008 7.89161 23.7427 7.07674C23.4692 6.23701 22.6053 5.87797 21.9111 5.58944C21.6045 5.46201 21.1409 5.26934 21.039 5.12948C20.9334 4.9845 20.8918 4.47872 20.8642 4.14405C20.803 3.40002 20.7268 2.47399 20.0206 1.95958C19.3194 1.44891 18.457 1.6507 17.696 1.8289C17.3462 1.91074 16.8673 2.02288 16.6897 1.96508C16.5343 1.91448 16.2137 1.53982 16.0015 1.29188C15.5092 0.716314 14.8963 0 14.0007 0C13.105 0 12.4921 0.716314 11.9997 1.29188C11.7875 1.53982 11.4669 1.91448 11.3116 1.96508C11.1339 2.02299 10.655 1.91079 10.3053 1.8289C9.54448 1.65081 8.68198 1.4488 7.98073 1.95963C7.63836 2.209 7.41 2.57722 7.2824 3.08531C7.19583 3.43005 7.16597 3.79304 7.13709 4.14405C7.10954 4.47872 7.06796 4.9845 6.9623 5.12953C6.86044 5.2694 6.39696 5.46201 6.09023 5.5895C5.39608 5.87802 4.53215 6.23706 4.25875 7.07679C3.99337 7.89167 4.44838 8.64285 4.84988 9.30554C5.03897 9.61772 5.29796 10.0452 5.29796 10.2427C5.29796 10.4402 5.03897 10.8677 4.84988 11.1799C4.44844 11.8427 3.99337 12.5938 4.25875 13.4087C4.5322 14.2485 5.39608 14.6075 6.09029 14.896C6.39696 15.0235 6.86044 15.2161 6.9623 15.356C7.0679 15.501 7.10954 16.0068 7.13709 16.3415C7.19831 17.0855 7.27454 18.0115 7.98073 18.5259C8.68198 19.0367 9.54442 18.8348 10.3053 18.6566C10.655 18.5748 11.1339 18.4625 11.3117 18.5205C11.4671 18.5711 11.7876 18.9458 11.9998 19.1937C12.4922 19.7693 13.1051 20.4855 14.0008 20.4855C14.8964 20.4855 15.5093 19.7692 16.0018 19.1936C16.2139 18.9457 16.5345 18.571 16.6899 18.5204C16.8674 18.4627 17.3465 18.5748 17.6962 18.6567C18.4572 18.8349 19.3197 19.0367 20.0208 18.5259C20.3632 18.2766 20.5915 17.9084 20.7191 17.4003C20.8056 17.0555 20.8355 16.6925 20.8644 16.3415C20.8919 16.0069 20.9336 15.5011 21.0392 15.356C21.1411 15.2162 21.6046 15.0236 21.9114 14.8961C22.6055 14.6076 23.4694 14.2485 23.7429 13.4088C24.0083 12.5939 23.5533 11.8427 23.1518 11.18C22.9624 10.8677 22.7035 10.4402 22.7035 10.2427ZM14.0007 15.7242C10.9782 15.7242 8.51929 13.2652 8.51929 10.2428C8.51929 7.22034 10.9782 4.76137 14.0007 4.76137C17.0232 4.76137 19.4821 7.22029 19.4821 10.2428C19.4821 13.2653 17.0232 15.7242 14.0007 15.7242Z" fill="#EE1111"/>
</g>
<defs>
<clipPath id="clip0">
<rect width="28" height="28" fill="white"/>
</clipPath>
</defs>
</svg>
