<svg width="28" height="28" viewBox="0 0 28 28" fill="none" xmlns="http://www.w3.org/2000/svg">
<g clip-path="url(#clip0)">
<path d="M14.0547 4.92188C13.6029 4.92188 13.2344 5.28973 13.2344 5.74219C13.2344 6.19485 13.6029 6.5625 14.0547 6.5625C14.5065 6.5625 14.875 6.19485 14.875 5.74219C14.875 5.28973 14.5065 4.92188 14.0547 4.92188Z" fill="#EE1111"/>
<path d="M11.5938 11.4844H16.5156V18.0469H11.5938V11.4844Z" fill="#EE1111"/>
<path d="M21.4375 11.4844H26.4141V18.0469H21.4375V11.4844Z" fill="#EE1111"/>
<path d="M1.69531 11.4844H6.67188V18.0469H1.69531V11.4844Z" fill="#EE1111"/>
<path d="M12.0983 19.6875L7.99609 27.9453H20.109L16.0063 19.6875H12.0983Z" fill="#EE1111"/>
<path d="M17.8438 19.6875L19.4844 23.0234H26.4149V19.6875H17.8438Z" fill="#EE1111"/>
<path d="M1.69531 23.0234H8.62546L10.2661 19.6875H1.69531V23.0234Z" fill="#EE1111"/>
<path d="M27.2353 24.6641H20.3047L21.9453 27.9453H27.2353C27.6881 27.9453 28.0554 27.5781 28.0554 27.125V25.4844C28.0554 25.0313 27.6881 24.6641 27.2353 24.6641Z" fill="#EE1111"/>
<path d="M0.0546875 25.4844V27.125C0.0546875 27.5781 0.421906 27.9453 0.875 27.9453H6.16495L7.80515 24.6641H0.875C0.421906 24.6641 0.0546875 25.0313 0.0546875 25.4844Z" fill="#EE1111"/>
<path d="M27.601 6.64896L14.4215 0.0319901C14.1906 -0.08358 13.9188 -0.08358 13.6877 0.0319901L0.508209 6.64896C0.230286 6.78803 0.0546875 7.07194 0.0546875 7.38276V9.02338C0.0546875 9.47648 0.421906 9.8437 0.875 9.8437H27.2344C27.6873 9.8437 28.0545 9.47648 28.0545 9.02338V7.38276C28.0545 7.07215 27.8789 6.78803 27.601 6.64896ZM14.0547 8.20307C12.6975 8.20307 11.5938 7.09928 11.5938 5.74213C11.5938 4.3852 12.6975 3.2812 14.0547 3.2812C15.4116 3.2812 16.5156 4.3852 16.5156 5.74213C16.5156 7.09928 15.4116 8.20307 14.0547 8.20307Z" fill="#EE1111"/>
</g>
<defs>
<clipPath id="clip0">
<rect width="28" height="28" fill="white"/>
</clipPath>
</defs>
</svg>
