<svg width="15" height="11" viewBox="0 0 15 11" fill="none" xmlns="http://www.w3.org/2000/svg">
<path d="M13.4688 8.57031C14.1016 7.9375 14.5 7.14062 14.5 6.25C14.5 4.375 12.6953 2.82812 10.3516 2.57031C9.625 1.21094 7.89062 0.25 5.875 0.25C3.17969 0.25 1 1.9375 1 4C1 4.86719 1.375 5.66406 2.03125 6.32031C1.65625 7.02344 1.14062 7.58594 1.14062 7.60938C1 7.75 0.953125 7.98438 1.02344 8.19531C1.11719 8.38281 1.30469 8.52344 1.53906 8.52344C2.78125 8.52344 3.78906 8.03125 4.46875 7.60938C4.67969 7.65625 4.91406 7.67969 5.125 7.72656C5.875 9.0625 7.58594 10 9.625 10C10.0938 10 10.5625 9.95312 11.0078 9.85938C11.6875 10.2812 12.6953 10.75 13.9609 10.75C14.1719 10.75 14.3594 10.6328 14.4531 10.4219C14.5234 10.2344 14.5 10 14.3359 9.83594C14.3359 9.83594 13.8203 9.27344 13.4688 8.57031ZM4.25781 6.39062L3.85938 6.64844C3.53125 6.88281 3.17969 7.04688 2.85156 7.16406C2.89844 7.04688 2.96875 6.92969 3.03906 6.8125L3.39062 6.08594L2.80469 5.5C2.5 5.19531 2.125 4.67969 2.125 4C2.125 2.59375 3.83594 1.375 5.875 1.375C7.89062 1.375 9.625 2.59375 9.625 4C9.625 5.42969 7.89062 6.625 5.875 6.625C5.47656 6.625 5.10156 6.60156 4.72656 6.50781L4.25781 6.39062ZM12.6719 7.75L12.0859 8.33594L12.4609 9.0625C12.5078 9.17969 12.5781 9.29688 12.6484 9.41406C12.2969 9.29688 11.9688 9.10938 11.6406 8.89844L11.2188 8.64062L10.7734 8.75781C10.3984 8.85156 10 8.875 9.625 8.875C8.35938 8.875 7.21094 8.40625 6.53125 7.72656C8.92188 7.46875 10.75 5.89844 10.75 4C10.75 3.92969 10.7266 3.85938 10.7266 3.76562C12.2266 4.11719 13.375 5.10156 13.375 6.25C13.375 6.92969 12.9766 7.44531 12.6719 7.75Z" fill="#787878"/>
</svg>
