<svg width="68" height="26" viewBox="0 0 68 26" fill="none" xmlns="http://www.w3.org/2000/svg">
<path d="M43.5077 0C45.7098 0 47.6222 0.383774 49.2449 1.15132C50.8675 1.89489 52.1193 2.97425 53.0001 4.38942C53.881 5.7806 54.3214 7.42363 54.3214 9.31852C54.3214 11.2134 53.881 12.8564 53.0001 14.2476C52.1193 15.6388 50.8675 16.7182 49.2449 17.4857C47.6222 18.2293 45.7098 18.6011 43.5077 18.6011H6.88465V25.1852H0V0H43.5077ZM43.0904 12.9884C44.5044 12.9884 45.5707 12.6765 46.2893 12.0529C47.0079 11.4053 47.3672 10.4938 47.3672 9.31852C47.3672 8.14321 47.0079 7.23175 46.2893 6.58413C45.5707 5.93651 44.5044 5.6127 43.0904 5.6127H6.88465V12.9884H43.0904Z" fill="white"/>
<path d="M68 0V25.1852H61.1154V5.50476H56.5951V0H68Z" fill="white"/>
</svg>
