<svg width="28" height="28" viewBox="0 0 28 28" fill="none" xmlns="http://www.w3.org/2000/svg">
<path d="M4.15625 13.125C4.81805 13.125 5.41705 12.8595 5.85968 12.4331L8.28793 13.6471C8.27576 13.746 8.25781 13.8432 8.25781 13.9453C8.25781 15.3022 9.36182 16.4062 10.7188 16.4062C12.0757 16.4062 13.1797 15.3022 13.1797 13.9453C13.1797 13.5666 13.0865 13.2119 12.933 12.8911L16.227 9.59702C16.5479 9.75061 16.9025 9.84375 17.2812 9.84375C18.6382 9.84375 19.7422 8.73975 19.7422 7.38281C19.7422 7.12732 19.692 6.88571 19.6194 6.65393L22.4815 4.50787C22.872 4.76871 23.34 4.92188 23.8438 4.92188C25.2007 4.92188 26.3047 3.81787 26.3047 2.46094C26.3047 1.104 25.2007 0 23.8438 0C22.4868 0 21.3828 1.104 21.3828 2.46094C21.3828 2.71643 21.433 2.95804 21.5056 3.18982L18.6435 5.33588C18.253 5.07504 17.785 4.92188 17.2812 4.92188C15.9243 4.92188 14.8203 6.02588 14.8203 7.38281C14.8203 7.76157 14.9135 8.11618 15.067 8.43704L11.773 11.7311C11.4521 11.5775 11.0975 11.4844 10.7188 11.4844C10.0569 11.4844 9.45795 11.7499 9.01532 12.1763L6.58707 10.9623C6.59924 10.8634 6.61719 10.7662 6.61719 10.6641C6.61719 9.30713 5.51318 8.20312 4.15625 8.20312C2.79932 8.20312 1.69531 9.30713 1.69531 10.6641C1.69531 12.021 2.79932 13.125 4.15625 13.125Z" fill="#EE1111"/>
<path d="M27.1797 26.3594H26.3047V9.02344C26.3047 8.57013 25.9377 8.20312 25.4844 8.20312H22.2031C21.7498 8.20312 21.3828 8.57013 21.3828 9.02344V26.3594H19.7422V13.9453C19.7422 13.492 19.3752 13.125 18.9219 13.125H15.6406C15.1873 13.125 14.8203 13.492 14.8203 13.9453V26.3594H13.1797V20.5078C13.1797 20.0545 12.8127 19.6875 12.3594 19.6875H9.07812C8.62482 19.6875 8.25781 20.0545 8.25781 20.5078V26.3594H6.61719V17.2266C6.61719 16.7733 6.25018 16.4062 5.79688 16.4062H2.51562C2.06232 16.4062 1.69531 16.7733 1.69531 17.2266V26.3594H0.820312C0.367004 26.3594 0 26.7264 0 27.1797C0 27.633 0.367004 28 0.820312 28H27.1797C27.633 28 28 27.633 28 27.1797C28 26.7264 27.633 26.3594 27.1797 26.3594Z" fill="#EE1111"/>
</svg>
