<svg width="28" height="28" viewBox="0 0 28 28" fill="none" xmlns="http://www.w3.org/2000/svg">
<path d="M9.49711 3.13022L10.8844 4.51749L12.3896 6.02289C12.7177 6.3508 13.1537 6.53132 13.6175 6.53132C13.6177 6.53132 13.6177 6.53132 13.6177 6.53132C14.0815 6.53132 14.5175 6.35059 14.8458 6.02268C15.5228 5.34549 15.523 4.24341 14.8458 3.56601L11.9525 0.672913C11.6244 0.344788 11.1884 0.164062 10.7242 0.164062C10.2604 0.164062 9.82417 0.344788 9.49604 0.672699C8.82121 1.34775 8.81907 2.4447 9.48942 3.12274C9.49198 3.12531 9.49455 3.12766 9.49711 3.13022Z" fill="#EE1111"/>
<path d="M5.87968 6.74692L6.7848 7.65204L8.77235 9.63938C8.77321 9.64002 8.77385 9.64087 8.7747 9.64173L9.48585 10.3529C9.48906 10.3561 9.49248 10.3593 9.49568 10.3625C9.82359 10.6906 10.2598 10.8713 10.7238 10.8713C11.1876 10.8713 11.6238 10.6906 11.9521 10.3627C12.28 10.0346 12.4608 9.59836 12.4608 9.13458C12.4608 8.6706 12.28 8.23416 11.9519 7.90625L11.2356 7.18976C11.2329 7.1872 11.2303 7.18485 11.228 7.18228L9.57002 5.52414L8.33699 4.29132C8.33635 4.29068 8.33592 4.29025 8.33528 4.28961C8.33528 4.28961 8.33528 4.2894 8.33506 4.2894C8.00694 3.96149 7.57115 3.78076 7.10737 3.78076C6.64338 3.78076 6.20695 3.96149 5.87882 4.28961C5.20313 4.96552 5.20185 6.06461 5.87498 6.74222C5.87669 6.74371 5.87818 6.74542 5.87968 6.74692Z" fill="#EE1111"/>
<path d="M2.26852 10.3684L5.14731 13.247C5.1503 13.25 5.15329 13.253 5.15629 13.2557C5.4842 13.5839 5.9202 13.7646 6.38419 13.7646C6.84818 13.7646 7.28462 13.5839 7.61274 13.2559C8.28907 12.5792 8.28971 11.4786 7.61424 10.8012L5.78669 8.97388L4.71921 7.90619C4.39109 7.57806 3.95465 7.39734 3.49088 7.39734C3.02689 7.39734 2.59088 7.57806 2.26297 7.90598C1.93463 8.23431 1.75391 8.67053 1.75391 9.13431C1.75391 9.5983 1.93463 10.0345 2.26276 10.3624C2.26468 10.3646 2.2666 10.3665 2.26852 10.3684Z" fill="#EE1111"/>
<path d="M2.62927 17.9633C2.89011 18.2216 3.21866 18.3872 3.57456 18.4438C3.58182 18.4451 3.58887 18.4461 3.59592 18.4474C3.67987 18.4598 3.76532 18.466 3.85184 18.466C4.31562 18.466 4.75183 18.2855 5.07996 17.9574C5.75693 17.2802 5.75693 16.1781 5.07975 15.5009L2.90998 13.3311C2.58164 13.003 2.14542 12.8223 1.68143 12.8223C1.21744 12.8223 0.78122 13.003 0.453095 13.3309C-0.223877 14.0081 -0.224091 15.1102 0.453308 15.7871C0.456299 15.7904 0.45929 15.7933 0.462281 15.7965L2.62265 17.9567C2.62479 17.9588 2.62714 17.961 2.62927 17.9633Z" fill="#EE1111"/>
<path d="M27.4373 13.3307C26.8744 12.768 26.0043 12.6591 25.3213 13.0656C24.9663 13.2773 24.5093 13.1916 24.2549 12.8659L24.2064 12.8035C23.9514 12.4771 23.9798 12.0116 24.2729 11.7187L25.6283 10.3628C25.6328 10.3586 25.6373 10.3543 25.6418 10.3498C25.9618 10.0232 26.1378 9.5923 26.1378 9.13429C26.1378 8.67051 25.9571 8.23408 25.6289 7.90595C25.3008 7.57783 24.8646 7.39732 24.4008 7.39732C23.9368 7.39732 23.5006 7.57804 23.1723 7.90617C22.8521 8.2266 22.3325 8.2266 22.0121 7.90617C21.8521 7.74595 21.772 7.53596 21.772 7.32597C21.772 7.11619 21.8521 6.9062 22.0123 6.74598C22.6895 6.06879 22.6895 4.96671 22.0123 4.28931C21.3351 3.61234 20.233 3.61234 19.5559 4.28931C19.2356 4.60975 18.7161 4.60975 18.3957 4.28931C18.2357 4.1291 18.1553 3.9191 18.1553 3.70933C18.1553 3.49933 18.2357 3.28934 18.3959 3.12913C18.724 2.80121 18.9047 2.365 18.9047 1.90101C18.9047 1.43702 18.724 1.00101 18.3959 0.672886C17.7187 -0.00451291 16.6166 -0.00429933 15.9392 0.672886L15.1054 1.50666L16.0046 2.40601C17.3214 3.723 17.3211 5.86585 16.0044 7.18263C15.4475 7.73976 14.7305 8.07813 13.957 8.15504C14.0514 8.46842 14.1006 8.79762 14.1006 9.13429C14.1006 10.0366 13.7491 10.8847 13.1111 11.5228C12.473 12.1607 11.6247 12.5119 10.7227 12.5119C10.3854 12.5119 10.0558 12.4628 9.74179 12.3679C9.6666 13.116 9.3436 13.844 8.77173 14.4161C8.26608 14.9211 7.62906 15.2456 6.93799 15.3593C7.48615 16.5987 7.25415 18.103 6.24008 19.1175C5.60156 19.7556 4.75369 20.1066 3.85177 20.1066C3.85156 20.1066 3.85156 20.1066 3.85156 20.1066C3.8146 20.1066 3.77786 20.1051 3.74112 20.1041L2.39785 21.4473C2.13446 21.7109 2.00073 22.082 2.02166 22.4924C2.04431 22.9341 2.23956 23.3603 2.57196 23.6925L6.22577 27.3465C6.8927 28.0135 7.97812 28.0135 8.64505 27.3465L10.7166 25.275L11.5082 25.0625C14.7472 25.9274 18.2305 24.9941 20.5985 22.6263L25.257 17.9676C25.2607 17.964 25.2643 17.9603 25.2679 17.9565L27.4373 15.7872C28.1145 15.1102 28.1145 14.0081 27.4373 13.3307Z" fill="#EE1111"/>
<path d="M24.7956 20.7501L21.7589 23.7868C20.7113 24.8342 19.4682 25.6573 18.1094 26.2103L19.2456 27.3466C19.9126 28.0135 20.998 28.0135 21.6649 27.3466L25.3189 23.6928C25.9748 23.0372 26.1318 22.0863 25.662 21.6166C25.3377 21.2923 25.0374 20.9919 24.7956 20.7501Z" fill="#EE1111"/>
</svg>
